<?xml version="1.0" standalone="no"?>
<svg xmlns="http://www.w3.org/2000/svg"
     width="188.000000pt" height="188.000000pt" viewBox="0 0 188.000000 188.000000"
     preserveAspectRatio="xMidYMid meet">

  <g transform="translate(0.000000,188.000000) scale(0.100000,-0.100000)"
     fill="#000000" stroke="none">
    <path d="M885 1525 c-97 -26 -158 -127 -138 -229 10 -49 10 -51 -24 -85 -63
-64 -78 -105 -78 -206 0 -82 3 -95 31 -147 l32 -58 -48 -34 c-129 -92 -230
-315 -230 -506 l0 -60 510 0 510 0 0 60 c0 191 -108 423 -237 513 l-39 27 33
66 c28 57 33 77 33 138 0 84 -27 151 -83 206 -34 35 -35 36 -25 85 21 102 -37
201 -135 230 -59 17 -48 17 -112 0z m131 -64 c34 -21 49 -55 30 -70 -9 -8 -25
-2 -54 20 -45 33 -48 39 -30 57 16 16 17 15 54 -7z m119 -303 c47 -37 73 -131
42 -156 -19 -16 -33 -2 -41 43 -5 24 -20 53 -38 72 -50 52 -20 86 37 41z m42
-460 c71 -62 103 -103 139 -175 43 -85 42 -123 -4 -123 -24 0 -31 8 -60 70
-21 46 -55 94 -97 139 -66 69 -75 87 -53 109 19 19 34 14 75 -20z"/>
  </g>
  <g transform="translate(0.000000,188.000000) scale(0.100000,-0.100000)"
     fill="#ffffff" stroke="none">
    <path d="M945 1463 c-8 -22 59 -83 93 -83 33 0 31 52 -4 79 -33 26 -79 28 -89
4z"/>
    <path d="M1070 1158 c0 -12 11 -34 25 -48 15 -16 29 -45 33 -71 6 -35 12 -45
29 -47 53 -8 53 94 1 154 -37 42 -88 49 -88 12z"/>
    <path d="M1102 724 c-12 -8 -22 -22 -22 -31 0 -8 29 -46 64 -84 42 -44 78 -95
101 -144 33 -68 39 -75 65 -75 99 0 21 190 -128 314 -50 41 -50 41 -80 20z"/>
  </g>
</svg>
